<svg aria-hidden="true" style="position: absolute; width: 0; height: 0; overflow: hidden;" version="1.1" xmlns="http://www.w3.org/2000/svg" xmlns:xlink="http://www.w3.org/1999/xlink">
    <defs>
        <symbol id="icon-map-link" viewBox="0 0 31 32">
            <path d="M12.425 22.691l7.305-7.305-7.305-7.305-1.81 1.81 5.495 5.495-5.495 5.495 1.81 1.81z"></path>
        </symbol>
        <symbol id="icon-close" viewBox="0 0 32 32">
            <path d="M21.589 8.459l-5.657 5.656-5.656-5.656-1.885 1.885 5.656 5.656-5.656 5.656 1.885 1.885 5.656-5.656 5.657 5.656 1.885-1.885-5.656-5.656 5.656-5.656-1.885-1.885z"></path>
        </symbol>
        <symbol id="icon-chevron-right" viewBox="0 0 31 32">
            <path d="M12.425 22.691l7.305-7.305-7.305-7.305-1.81 1.81 5.495 5.495-5.495 5.495 1.81 1.81z"></path>
        </symbol>
        <symbol id="icon-chevrons-right" viewBox="0 0 32 32">
            <path d="M13.728 10.28l5.767 5.72-5.767 5.72 1.877 1.893 7.676-7.613-7.676-7.613-1.877 1.893z"></path>
            <path d="M8.939 8.387l-1.877 1.893 5.767 5.72-5.767 5.72 1.877 1.893 7.676-7.613-7.676-7.613z"></path>
        </symbol>
        <symbol id="icon-favicon" viewBox="0 0 32 32">
            <path d="M27.942 14.832c-0.646-6.608-6.535-11.435-13.141-10.772-6.581 0.661-11.387 6.523-10.743 13.107s6.493 11.403 13.078 10.778c6.609-0.629 11.452-6.505 10.806-13.113zM18.997 6.831c0.146-0 0.256 0.029 0.392 0.066l0.029 0.008c0.053 0.267-0 0.392-0.14 0.619-0.245 0.398-0.517 0.78-0.79 1.162-0.481 0.674-0.962 1.347-1.292 2.114-0.715 1.664-0.548 3.604-0.38 5.565 0.147 1.716 0.296 3.448-0.144 5.023-0.529 1.895-1.857 3.135-3.52 4.059-0.092 0.015-0.194 0.008-0.292 0-0.021-0.002-0.041-0.003-0.061-0.005-0.013-0.001-0.025-0.002-0.037-0.002l-0.016-0.030c-0.095-0.18-0.101-0.191-0.032-0.396 0.089-0.266 0.266-0.538 0.433-0.795 0.064-0.098 0.126-0.194 0.181-0.286 0.578-0.963 1.145-2.003 1.322-3.127 0.222-1.403 0.104-2.848-0.014-4.292-0.15-1.832-0.299-3.666 0.245-5.415 0.668-2.149 2.232-3.27 4.114-4.271z"></path>
        </symbol>
        <symbol id="icon-menu" viewBox="0 0 32 32">
            <path d="M5.333 8h21.333v2.667h-21.333v-2.667zM5.333 14.667h21.333v2.667h-21.333v-2.667zM5.333 21.333h21.333v2.667h-21.333v-2.667z"></path>
        </symbol>
        <symbol id="icon-star-filled" viewBox="0 0 32 32">
            <path d="M14.761 4.816c0.458-1.089 2.019-1.089 2.478 0l2.705 6.425c0.193 0.459 0.63 0.772 1.132 0.812l7.021 0.556c1.19 0.094 1.672 1.561 0.766 2.328l-5.349 4.527c-0.382 0.323-0.549 0.831-0.432 1.314l1.634 6.769c0.277 1.147-0.986 2.053-2.004 1.439l-6.011-3.627c-0.429-0.259-0.969-0.259-1.399 0l-6.011 3.627c-1.018 0.615-2.281-0.292-2.004-1.439l1.634-6.769c0.117-0.483-0.050-0.991-0.432-1.314l-5.35-4.527c-0.906-0.767-0.424-2.234 0.766-2.328l7.021-0.556c0.502-0.040 0.938-0.353 1.132-0.812l2.705-6.425z"></path>
        </symbol>
        <symbol id="icon-star-outline" viewBox="0 0 32 32">
            <path stroke-linejoin="miter" stroke-linecap="butt" stroke-miterlimit="4" stroke-width="1.3333" d="M15.375 5.076c0.229-0.545 1.021-0.545 1.25 0l2.704 6.424c0.291 0.691 0.947 1.16 1.694 1.219l7.021 0.556c0.61 0.048 0.828 0.78 0.388 1.154l-5.35 4.527c-0.573 0.485-0.826 1.25-0.65 1.98l1.635 6.768c0.133 0.549-0.482 1.031-1.013 0.711h-0.001l-6.009-3.626c-0.641-0.387-1.447-0.387-2.089 0l-6.010 3.626c-0.531 0.32-1.146-0.162-1.013-0.711l1.635-6.768c0.176-0.73-0.077-1.495-0.65-1.98l-5.35-4.527c-0.44-0.373-0.222-1.105 0.388-1.154l7.021-0.556c0.747-0.059 1.403-0.527 1.694-1.219l2.704-6.424z"></path>
        </symbol>
        <symbol id="icon-facebook" viewBox="0 0 31 32">
            <path d="M28.16 16.744c0-7.112-5.731-12.878-12.8-12.878s-12.8 5.766-12.8 12.878c0 6.428 4.681 11.756 10.8 12.722v-8.999h-3.25v-3.723h3.25v-2.837c0-3.228 1.911-5.010 4.835-5.010 1.401 0 2.865 0.252 2.865 0.252v3.169h-1.614c-1.59 0-2.086 0.993-2.086 2.011v2.416h3.55l-0.567 3.723h-2.983v8.999c6.119-0.966 10.8-6.294 10.8-12.722z"></path>
        </symbol>
        <symbol id="icon-instagram" viewBox="0 0 31 32">
            <path d="M15.358 6.91c3.078 0 3.442 0.014 4.652 0.068 1.125 0.050 1.732 0.238 2.137 0.396 0.536 0.207 0.922 0.459 1.323 0.86 0.405 0.405 0.652 0.788 0.864 1.323 0.158 0.405 0.346 1.017 0.396 2.137 0.054 1.215 0.068 1.579 0.068 4.653s-0.014 3.442-0.068 4.653c-0.050 1.125-0.238 1.732-0.396 2.137-0.207 0.536-0.459 0.922-0.86 1.323-0.405 0.405-0.788 0.652-1.323 0.864-0.405 0.158-1.017 0.346-2.137 0.396-1.215 0.054-1.58 0.068-4.653 0.068s-3.442-0.014-4.653-0.068c-1.125-0.050-1.732-0.238-2.137-0.396-0.536-0.207-0.922-0.459-1.323-0.86-0.405-0.405-0.652-0.787-0.864-1.322-0.158-0.405-0.346-1.017-0.396-2.137-0.054-1.215-0.068-1.579-0.068-4.653s0.014-3.442 0.068-4.653c0.050-1.125 0.238-1.732 0.396-2.137 0.207-0.536 0.459-0.922 0.86-1.323 0.405-0.405 0.788-0.652 1.323-0.864 0.405-0.158 1.017-0.346 2.137-0.396 1.21-0.054 1.575-0.068 4.653-0.068h0.001zM15.358 4.836c-3.127 0-3.518 0.014-4.747 0.068-1.224 0.054-2.065 0.252-2.794 0.536-0.76 0.297-1.404 0.688-2.042 1.332-0.644 0.639-1.035 1.282-1.332 2.038-0.284 0.734-0.482 1.57-0.536 2.794-0.054 1.233-0.068 1.624-0.068 4.751s0.014 3.518 0.068 4.747c0.054 1.224 0.252 2.065 0.536 2.794 0.297 0.76 0.688 1.404 1.332 2.042 0.639 0.639 1.282 1.035 2.038 1.328 0.734 0.284 1.57 0.482 2.794 0.536 1.228 0.054 1.62 0.068 4.747 0.068s3.519-0.014 4.747-0.068c1.224-0.054 2.065-0.252 2.794-0.536 0.756-0.292 1.4-0.688 2.038-1.328s1.035-1.282 1.328-2.038c0.284-0.734 0.482-1.57 0.536-2.794 0.054-1.228 0.068-1.62 0.068-4.747s-0.014-3.518-0.068-4.747c-0.054-1.224-0.252-2.065-0.536-2.794-0.284-0.765-0.675-1.408-1.318-2.047-0.639-0.639-1.282-1.035-2.038-1.327-0.734-0.284-1.57-0.482-2.794-0.536-1.233-0.058-1.624-0.072-4.751-0.072l-0.001 0.001z"></path>
            <path d="M15.358 10.438c-3.266 0-5.917 2.65-5.917 5.917s2.65 5.917 5.917 5.917c3.267 0 5.917-2.65 5.917-5.917s-2.65-5.917-5.917-5.917zM15.358 20.192c-2.119 0-3.838-1.719-3.838-3.838s1.718-3.838 3.838-3.838c2.119 0 3.838 1.718 3.838 3.838s-1.718 3.838-3.838 3.838z"></path>
            <path d="M22.889 10.204c0 0.763-0.618 1.381-1.381 1.381s-1.381-0.618-1.381-1.381 0.619-1.381 1.381-1.381c0.763 0 1.381 0.618 1.381 1.381z"></path>
        </symbol>
        <symbol id="icon-twitter" viewBox="0 0 31 32">
            <path d="M21.985 6.426h3.533l-7.719 8.675 9.080 11.805h-7.11l-5.569-7.16-6.372 7.16h-3.535l8.256-9.279-8.711-11.201h7.29l5.034 6.544 5.822-6.544zM20.745 24.827h1.958l-12.637-16.43h-2.101l12.78 16.43z"></path>
        </symbol>
        <symbol id="icon-email" viewBox="0 0 31 32">
            <path d="M25.858 5.926h-20.687c-1.426 0-2.586 1.16-2.586 2.586v15.515c0 1.426 1.16 2.586 2.586 2.586h20.687c1.426 0 2.586-1.16 2.586-2.586v-15.515c0-1.426-1.16-2.586-2.586-2.586zM25.858 8.512v0.661l-10.343 8.046-10.343-8.045v-0.662h20.687zM5.172 24.027v-11.579l9.55 7.428c0.226 0.178 0.506 0.274 0.794 0.274s0.567-0.097 0.794-0.274l9.55-7.428 0.003 11.579h-20.689z"></path>
        </symbol>
        <symbol id="icon-location" viewBox="0 0 31 32">
            <path d="M15.515 18.855c2.852 0 5.172-2.32 5.172-5.172s-2.32-5.172-5.172-5.172c-2.852 0-5.172 2.32-5.172 5.172s2.319 5.172 5.172 5.172zM15.515 11.098c1.426 0 2.586 1.16 2.586 2.586s-1.16 2.586-2.586 2.586c-1.426 0-2.586-1.16-2.586-2.586s1.16-2.586 2.586-2.586z"></path>
            <path d="M14.765 28.958c0.219 0.156 0.481 0.24 0.75 0.24s0.531-0.084 0.75-0.24c0.393-0.278 9.631-6.948 9.593-15.275 0-5.703-4.64-10.343-10.343-10.343s-10.343 4.64-10.343 10.337c-0.037 8.333 9.2 15.003 9.594 15.281zM15.515 5.926c4.278 0 7.758 3.479 7.758 7.764 0.027 5.738-5.673 10.89-7.758 12.58-2.083-1.691-7.785-6.845-7.758-12.587 0-4.278 3.479-7.758 7.758-7.758z"></path>
        </symbol>
        <symbol id="icon-phone" viewBox="0 0 31 32">
            <path d="M22.894 16.648c-0.12-0.12-0.262-0.215-0.419-0.281s-0.325-0.099-0.495-0.099-0.338 0.033-0.495 0.099c-0.157 0.065-0.299 0.16-0.419 0.281l-2.061 2.061c-0.956-0.284-2.738-0.931-3.869-2.061s-1.777-2.913-2.061-3.868l2.061-2.061c0.12-0.12 0.216-0.262 0.281-0.419s0.099-0.325 0.099-0.495c0-0.17-0.034-0.338-0.099-0.495s-0.16-0.299-0.281-0.419l-5.172-5.172c-0.12-0.12-0.262-0.216-0.419-0.281s-0.325-0.099-0.495-0.099-0.338 0.033-0.495 0.099c-0.157 0.065-0.299 0.16-0.419 0.281l-3.506 3.506c-0.491 0.491-0.768 1.166-0.758 1.855 0.030 1.841 0.517 8.236 5.557 13.276s11.435 5.526 13.277 5.557h0.036c0.683 0 1.328-0.269 1.817-0.758l3.506-3.506c0.12-0.12 0.215-0.262 0.281-0.419s0.099-0.325 0.099-0.495-0.033-0.338-0.099-0.495c-0.065-0.157-0.16-0.299-0.281-0.419l-5.172-5.173zM22.73 25.326c-1.614-0.027-7.134-0.46-11.472-4.799-4.352-4.352-4.773-9.892-4.799-11.473l2.592-2.592 3.343 3.344-1.672 1.672c-0.152 0.152-0.264 0.339-0.325 0.545s-0.071 0.424-0.027 0.634c0.031 0.149 0.79 3.674 2.936 5.821s5.672 2.905 5.821 2.936c0.21 0.045 0.428 0.037 0.634-0.024s0.393-0.173 0.545-0.326l1.673-1.672 3.343 3.343-2.594 2.592z"></path>
        </symbol>
        <symbol id="icon-map-pin" viewBox="0 0 32 32">
            <path d="M16 22.667l1.333-2.667v-6.856c2.295-0.596 4-2.667 4-5.144 0-2.941-2.392-5.333-5.333-5.333s-5.333 2.392-5.333 5.333c0 2.477 1.705 4.548 4 5.144v6.856l1.333 2.667zM13.333 8c0-1.471 1.196-2.667 2.667-2.667s2.667 1.196 2.667 2.667c0 1.471-1.196 2.667-2.667 2.667s-2.667-1.196-2.667-2.667z"></path>
            <path d="M21.689 14.084l-0.711 2.571c3.455 0.955 5.688 2.791 5.688 4.679 0 2.523-4.38 5.333-10.667 5.333s-10.667-2.811-10.667-5.333c0-1.888 2.233-3.724 5.689-4.68l-0.711-2.571c-4.716 1.304-7.645 4.081-7.645 7.251 0 4.485 5.857 8 13.333 8s13.333-3.515 13.333-8c0-3.169-2.929-5.947-7.644-7.249z"></path>
        </symbol>
        <symbol id="icon-company-logo" viewBox="0 0 75 32">
            <path d="M31.857 8.795c-0.271-2.767-2.737-4.789-5.504-4.511-2.756 0.277-4.769 2.732-4.499 5.489s2.719 4.776 5.477 4.514c2.768-0.263 4.796-2.725 4.526-5.492zM28.111 5.444c0.061-0 0.107 0.012 0.164 0.028l0.012 0.003c0.022 0.112-0 0.164-0.059 0.259-0.103 0.167-0.217 0.327-0.331 0.486-0.201 0.282-0.403 0.564-0.541 0.886-0.299 0.697-0.23 1.509-0.159 2.331 0.062 0.719 0.124 1.444-0.060 2.104-0.222 0.794-0.778 1.313-1.474 1.7-0.039 0.006-0.081 0.003-0.122 0-0.009-0.001-0.017-0.001-0.025-0.002-0.005-0-0.011-0.001-0.016-0.001l-0.007-0.013c-0.040-0.075-0.042-0.080-0.013-0.166 0.037-0.111 0.112-0.225 0.181-0.333 0.027-0.041 0.053-0.081 0.076-0.12 0.242-0.403 0.479-0.839 0.554-1.31 0.093-0.588 0.043-1.193-0.006-1.797-0.063-0.767-0.125-1.535 0.102-2.268 0.28-0.9 0.935-1.37 1.723-1.788z"></path>
            <path d="M43.689 23.395c-0.314-2.686-2.746-4.61-5.432-4.297-2.688 0.313-4.613 2.746-4.299 5.433s2.748 4.612 5.435 4.297c2.686-0.315 4.609-2.747 4.296-5.433zM38.265 20.224c0.65-0.048 1.258 0.11 1.782 0.5 0.848 0.631 1.281 1.673 1.424 2.694 0.152 1.077 0.137 2.573-0.565 3.475-0.383 0.492-0.867 0.691-1.466 0.765-0.639 0.062-1.278-0.11-1.8-0.482-0.825-0.595-1.249-1.573-1.402-2.553-0.175-1.116-0.169-2.678 0.555-3.62 0.385-0.501 0.866-0.7 1.472-0.778z"></path>
            <path d="M15.783 0.245c0.872-0.114 1.858-0.025 2.706 0.189 0.516 0.13 1.030 0.307 1.558 0.381 0.303 0.043 0.621 0.039 0.927 0.045 0.050 0.849 0.213 2.883 0.115 3.63-0.156 0.030-0.276 0.022-0.433 0-0.161-0.186-0.237-0.602-0.333-0.844-0.354-0.885-1.055-1.564-1.934-1.925-1.102-0.452-2.417-0.394-3.502 0.075-1.14 0.493-2.069 1.478-2.522 2.633-0.701 1.788-0.696 4.083 0.090 5.843 0.545 1.22 1.515 2.293 2.784 2.769 1.211 0.455 2.528 0.32 3.688-0.212 0.518-0.264 0.997-0.657 1.306-1.156 0.174-0.282 0.303-0.818 0.579-1l0.077 0.031c0.297 0.376 0.408 1.55 0.506 2.055-1.118 0.986-2.468 1.639-3.951 1.835-1.941 0.255-3.967-0.137-5.535-1.347-1.428-1.102-2.295-2.833-2.509-4.607-0.249-2.062 0.206-4.142 1.511-5.783 1.202-1.512 2.971-2.396 4.874-2.614z"></path>
            <path d="M52.235 5.142c-0.52-0.129-1.148-0.199-1.681-0.133-1.243 0.122-2.306 0.601-3.114 1.576-0.895 1.092-1.32 2.495-1.182 3.9 0.124 1.198 0.675 2.389 1.63 3.147 1.004 0.797 2.422 1.021 3.668 0.874 1.106-0.131 2.086-0.608 2.772-1.501 0.314-0.408 0.542-0.869 0.721-1.35-0.022-0.021-0.044-0.042-0.066-0.064-0.106-0.104-0.215-0.212-0.358-0.255-0.013 0.006-0.023 0.010-0.033 0.014-0.043 0.018-0.061 0.026-0.097 0.080-0.591 0.871-1.269 1.447-2.328 1.645-0.825 0.154-1.646 0.012-2.338-0.474-0.551-0.387-0.986-0.957-1.24-1.578 1.266-0.751 2.642-1.511 4.099-1.809 0.288-0.059 0.582-0.092 0.875-0.125 0.308-0.035 0.615-0.069 0.914-0.134 0.2-0.043 0.344-0.084 0.412-0.296 0.17-0.533-0.099-1.403-0.367-1.862-0.491-0.84-1.353-1.423-2.288-1.655zM50.947 5.989c0.237 0.001 0.49 0.018 0.718 0.081 0.386 0.106 0.735 0.335 0.923 0.696 0.13 0.25 0.232 0.651 0.13 0.924-0.086 0.23-0.272 0.387-0.477 0.508-0.256 0.151-0.563 0.248-0.859 0.342-0.101 0.032-0.2 0.063-0.295 0.096-0.517 0.179-1.026 0.373-1.519 0.612-0.113 0.050-0.255 0.14-0.407 0.236-0.285 0.18-0.602 0.38-0.817 0.377-0.115-0.096-0.144-0.176-0.156-0.32-0.080-0.958 0.306-2.047 0.925-2.771 0.454-0.53 1.166-0.726 1.834-0.78z"></path>
            <path d="M61.547 5.050c-0.368-0.050-0.74-0.064-1.111-0.042-1.262 0.103-2.328 0.563-3.154 1.545-0.908 1.088-1.344 2.493-1.211 3.904 0.111 1.168 0.657 2.363 1.577 3.114 0.991 0.808 2.469 1.084 3.716 0.943 1.11-0.126 2.107-0.647 2.8-1.528 0.319-0.409 0.569-0.868 0.739-1.357-0.022-0.019-0.044-0.039-0.067-0.060-0.115-0.105-0.251-0.229-0.396-0.241-0.594 0.894-1.305 1.524-2.382 1.741-0.812 0.164-1.6 0.044-2.297-0.418-0.598-0.397-1.033-0.975-1.343-1.616 1.369-0.931 3.053-1.645 4.68-1.946 0.202-0.037 0.407-0.053 0.612-0.069 0.17-0.013 0.339-0.026 0.507-0.052 0.219-0.033 0.44-0.083 0.489-0.333 0.138-0.704-0.14-1.552-0.556-2.118-0.627-0.854-1.567-1.322-2.603-1.466zM60.345 6.023c0.424-0.034 0.838-0.055 1.246 0.095 0.392 0.143 0.708 0.426 0.879 0.81 0.113 0.252 0.162 0.535 0.055 0.798-0.061 0.148-0.172 0.283-0.301 0.378-0.308 0.225-1.070 0.491-1.732 0.722-0.326 0.114-0.629 0.22-0.841 0.308-0.34 0.152-0.669 0.336-0.996 0.52-0.182 0.102-0.363 0.204-0.546 0.3-0.154-0.938-0.057-1.894 0.453-2.716 0.422-0.679 1.017-1.038 1.783-1.213z"></path>
            <path d="M28.906 16.304c1.004-0.006 3.825-0.131 4.586 0.070 0.064 0.087 0.058 0.089 0.050 0.198-0.176 0.296-0.551 0.415-0.812 0.628-0.15 0.122-0.286 0.297-0.331 0.488-0.168 0.709-0.102 1.528-0.102 2.256l-0.020 3.074c-0.005 0.733 0.018 1.483-0.068 2.212-0.123 1.043-0.583 2.012-1.426 2.662-1.050 0.81-2.517 0.99-3.801 0.816-1.124-0.152-2.221-0.639-2.921-1.562-0.634-0.837-0.795-1.815-0.66-2.838 0.036-0.181 0.081-0.355 0.146-0.528 0.239-0.638 0.707-1.162 1.339-1.433 0.667-0.286 1.508-0.307 2.178-0.018 0.326 0.14 0.531 0.381 0.651 0.715 0.073 0.204 0.097 0.379 0.004 0.577-0.27 0.255-0.878-0.087-1.256 0.019-0.348 0.098-0.615 0.342-0.782 0.658-0.29 0.549-0.297 1.268-0.089 1.846 0.185 0.515 0.603 0.931 1.095 1.159 0.585 0.27 1.407 0.338 2.018 0.111 0.473-0.176 0.821-0.552 1.012-1.015 0.164-0.398 0.242-0.856 0.28-1.283 0.087-0.963 0.196-6.777-0.016-7.406-0.224-0.663-0.986-0.683-1.161-1.087 0-0.098 0.002-0.165 0.049-0.251 0.012-0.023 0.026-0.045 0.038-0.067z"></path>
            <path d="M49.651 27.076c0.428-1.060 0.798-2.152 1.192-3.225 0.308-0.836 0.688-1.7 0.876-2.57 0.040-0.185 0.058-0.369 0.006-0.554-0.158-0.565-0.887-0.52-1.052-0.956 0.023-0.096 0.009-0.137 0.101-0.196 0.169-0.108 3.144-0.119 3.509-0.073 0.121 0.015 0.208 0.042 0.288 0.14 0.008 0.21-0.042 0.305-0.231 0.412-0.303 0.171-0.688 0.258-0.915 0.539-0.357 0.443-1.702 4.23-2.034 5.091l-1.109 2.878c-0.279 0.723-0.541 1.508-0.956 2.166-0.252 0.398-0.591 0.783-1.001 1.020-0.599 0.345-1.359 0.408-2.022 0.222-0.515-0.145-0.986-0.464-1.233-0.949-0.195-0.384-0.243-0.895-0.1-1.304 0.107-0.305 0.354-0.557 0.648-0.689 0.19-0.085 0.502-0.158 0.699-0.051 0.469 0.255 0.163 1.097 0.343 1.546 0.061 0.151 0.149 0.257 0.303 0.319 0.251 0.101 0.686-0.037 0.912-0.147 0.764-0.373 1.085-1.573 1.339-2.315-0.321 0.006-0.691 0.045-1.007-0.010-0.049-0.008-0.111-0.021-0.155-0.047-0.105-0.061-0.172-0.171-0.226-0.276-0.249-0.486-0.418-1.051-0.613-1.563l-1.212-3.191c-0.239-0.627-0.455-1.281-0.748-1.884-0.218-0.45-0.51-0.909-0.959-1.157-0.223-0.123-0.516-0.121-0.667-0.345-0.026-0.152 0.001-0.245 0.048-0.39 0.804-0.033 4.036-0.117 4.63 0.049 0.033 0.113 0.038 0.27-0.007 0.382-0.071 0.176-0.412 0.231-0.569 0.294-0.169 0.068-0.316 0.171-0.382 0.349-0.072 0.197 0.024 0.513 0.081 0.712 0.246 0.872 0.643 1.734 0.97 2.583 0.409 1.060 0.777 2.16 1.253 3.191z"></path>
            <path d="M43.961 1.037c0.714-0.037 1.391 0.054 2.015 0.428 0.455 0.273 0.841 0.683 0.956 1.214 0.063 0.288 0.043 0.593-0.125 0.844-0.182 0.272-0.55 0.484-0.873 0.524-0.194 0.024-0.422-0.002-0.578-0.128-0.361-0.292-0.193-0.81-0.261-1.209-0.037-0.215-0.149-0.396-0.335-0.512-0.281-0.176-0.72-0.235-1.039-0.146-0.279 0.077-0.48 0.274-0.608 0.528-0.409 0.807-0.183 1.861 0.070 2.677 0.856 0.021 1.716 0.004 2.573 0.003 0.002 0.363-0.004 0.721-0.032 1.083-0.827-0.001-1.656-0.013-2.483 0.018-0.053 0.85-0.032 1.714-0.037 2.566-0.008 1.275-0.134 2.683 0.159 3.924 0.044 0.115 0.093 0.223 0.153 0.331 0.258 0.469 0.416 0.419 0.875 0.57 0.156 0.051 0.247 0.115 0.315 0.261-0.006 0.123-0.025 0.17-0.098 0.269-0.041 0.026-0.057 0.041-0.11 0.050-0.166 0.032-4.158 0.014-4.384-0.023-0.155-0.026-0.264-0.060-0.362-0.192 0.064-0.377 0.484-0.35 0.736-0.594 0.289-0.279 0.434-0.653 0.514-1.040 0.175-0.842 0.107-1.795 0.104-2.655l-0.016-3.479-1.633-0.006c-0.033-0.359-0.035-0.722-0.045-1.083l1.626-0.001c-0.080-0.243-0.159-0.496-0.194-0.75-0.104-0.751 0.071-1.515 0.533-2.123 0.614-0.809 1.601-1.222 2.585-1.35z"></path>
            <path d="M37.204 1.038c0.658-0.055 1.289-0.007 1.88 0.316 0.472 0.258 0.874 0.684 1.019 1.212 0.090 0.327 0.099 0.741-0.085 1.038-0.131 0.211-0.349 0.334-0.589 0.379-0.219 0.041-0.508 0.040-0.69-0.106-0.345-0.277-0.114-0.81-0.191-1.178-0.046-0.221-0.225-0.409-0.418-0.515-0.305-0.167-0.744-0.188-1.074-0.088-0.274 0.082-0.481 0.261-0.606 0.518-0.364 0.743-0.088 1.882 0.162 2.622 0.82 0.049 1.658 0.011 2.48 0.015 0.021 0.367 0.002 0.726-0.020 1.092-0.835-0.002-1.67 0.001-2.505 0.009-0.038 1.044-0.054 2.088-0.046 3.133-0.003 1.076-0.11 2.285 0.206 3.323 0.347 0.76 1.067 0.888 1.237 1.294-0.026 0.074-0.015 0.087-0.089 0.13-0.263 0.157-4.261 0.127-4.618 0.042-0.014-0.049-0.032-0.105-0.034-0.155-0.011-0.317 0.489-0.45 0.681-0.64 0.267-0.264 0.4-0.753 0.462-1.117 0.139-0.818 0.095-1.72 0.094-2.549l-0.007-3.463-1.628-0.007c-0.025-0.361-0.024-0.721-0.023-1.083 0.519 0.006 1.039 0.005 1.558-0.002-0.080-0.265-0.165-0.53-0.206-0.804-0.111-0.745 0.051-1.482 0.507-2.088 0.612-0.814 1.565-1.191 2.545-1.329z"></path>
        </symbol>
        <symbol id="icon-company-logo" viewBox="0 0 64 36">
            <path d="M25.839 9.67263C25.5347 6.55934 22.76 4.28501 19.6476 4.59757C16.5467 4.90898 14.2826 7.67109 14.5858 10.7728C14.8891 13.8745 17.6452 16.1456 20.7478 15.851C23.8618 15.5547 26.1434 12.7859 25.839 9.67263ZM21.6246 5.90275C21.6937 5.90256 21.7452 5.91659 21.8094 5.93405L21.8233 5.93784C21.8484 6.06384 21.8233 6.1224 21.7574 6.22965C21.642 6.41739 21.5136 6.59715 21.3852 6.77692C21.1586 7.09425 20.9319 7.41166 20.7766 7.77319C20.4399 8.55706 20.5183 9.47138 20.5976 10.3953C20.667 11.2038 20.737 12.0198 20.5299 12.762C20.2806 13.6548 19.655 14.2389 18.8716 14.6745C18.8282 14.6817 18.7803 14.6781 18.7342 14.6745C18.7246 14.6738 18.715 14.673 18.7056 14.6724C18.6996 14.672 18.6937 14.6716 18.6879 14.6714L18.6803 14.657C18.6357 14.5721 18.633 14.567 18.6653 14.4704C18.7073 14.3451 18.7907 14.2168 18.8694 14.096C18.8994 14.0498 18.9287 14.0048 18.9548 13.9614C19.2271 13.5077 19.4941 13.0175 19.5776 12.488C19.6819 11.8268 19.6264 11.1464 19.5708 10.466C19.5003 9.60268 19.4299 8.73895 19.6861 7.91484C20.0008 6.90226 20.7377 6.37409 21.6246 5.90275Z"/>
            <path d="M39.1508 26.0968C38.7978 23.0746 36.0619 20.9107 33.0398 21.2626C30.0162 21.6145 27.8506 24.3515 28.2037 27.3752C28.5569 30.3989 31.2948 32.5634 34.3182 32.2094C37.3403 31.8554 39.5038 29.1189 39.1508 26.0968ZM33.0482 22.5294C33.7793 22.4753 34.4632 22.6534 35.053 23.092C36.0074 23.8016 36.4942 24.9744 36.6555 26.1225C36.8262 27.3342 36.8094 29.0171 36.0199 30.0318C35.5892 30.5849 35.0446 30.8097 34.3702 30.8921C33.6517 30.9614 32.9327 30.7687 32.3454 30.3501C31.4171 29.6804 30.9407 28.5801 30.7678 27.4776C30.5708 26.2218 30.5781 24.4644 31.3917 23.405C31.8246 22.8414 32.3654 22.6172 33.0482 22.5294Z"/>
            <path d="M7.75597 0.0532692C8.73651 -0.0753064 9.84637 0.0255393 10.8003 0.266146C11.3805 0.412474 11.9594 0.611482 12.5525 0.694941C12.8936 0.742894 13.2514 0.739058 13.5955 0.745098C13.6512 1.70001 13.8354 3.98821 13.7251 4.82931C13.5494 4.8634 13.4144 4.85384 13.2377 4.82979C13.0567 4.62054 12.9716 4.15219 12.8629 3.88086C12.464 2.88582 11.6754 2.12124 10.6866 1.71566C9.44746 1.2074 7.96795 1.27274 6.74658 1.80033C5.46388 2.35445 4.41878 3.46346 3.90942 4.76245C3.12042 6.77449 3.12593 9.35535 4.01115 11.3359C4.62446 12.7081 5.71551 13.9152 7.14319 14.4509C8.5061 14.9624 9.98723 14.8111 11.2927 14.2129C11.8756 13.9155 12.4146 13.4733 12.7614 12.9128C12.9576 12.5957 13.1018 11.993 13.413 11.7883L13.4996 11.8226C13.834 12.2451 13.9585 13.5663 14.0684 14.1346C12.8101 15.2436 11.2921 15.9789 9.62357 16.1984C7.43994 16.4852 5.16098 16.0445 3.39648 14.6829C1.79028 13.4435 0.814674 11.4959 0.57349 9.5001C0.293176 7.18086 0.805272 4.84024 2.27323 2.99428C3.6259 1.29333 5.61551 0.298865 7.75597 0.0532692Z"/>
            <path d="M48.7648 5.56206C48.1803 5.41652 47.4728 5.33795 46.8735 5.41226C45.4748 5.54967 44.2789 6.08892 43.3702 7.18564C42.3634 8.41425 41.8854 9.99208 42.0403 11.5729C42.1795 12.9205 42.7993 14.2604 43.8745 15.1128C45.0037 16.0089 46.5993 16.2616 48.0006 16.0956C49.2449 15.9485 50.3478 15.4112 51.1194 14.4067C51.4724 13.9477 51.7287 13.4289 51.9309 12.8885C51.9061 12.8651 51.8815 12.8409 51.8566 12.8165C51.7374 12.6992 51.6144 12.5782 51.454 12.5295C51.4398 12.536 51.4276 12.5411 51.4168 12.5457C51.368 12.5662 51.3484 12.5745 51.308 12.6359C50.6425 13.6156 49.8799 14.2641 48.6887 14.4868C47.7601 14.6605 46.8372 14.5007 46.0583 13.9541C45.4386 13.5192 44.9496 12.8773 44.6633 12.1787C46.0878 11.3341 47.6361 10.4792 49.2748 10.1436C49.5992 10.0771 49.9299 10.0398 50.2596 10.0026C50.6063 9.96353 50.9518 9.92456 51.2875 9.85196C51.5128 9.80327 51.6746 9.75746 51.7513 9.51869C51.943 8.91957 51.6405 7.94071 51.3384 7.42441C50.7864 6.47963 49.8169 5.82383 48.7648 5.56206ZM47.3157 6.5153C47.582 6.51687 47.8672 6.53573 48.1235 6.60653C48.5574 6.72618 48.9503 6.98322 49.1619 7.38959C49.3085 7.6708 49.423 8.12165 49.3079 8.42933C49.2113 8.68763 49.0023 8.86416 48.7711 9.00072C48.4827 9.17071 48.1372 9.28006 47.8045 9.38535C47.6913 9.42116 47.5797 9.4565 47.4723 9.4936C46.8908 9.69444 46.3178 9.91357 45.7637 10.1816C45.637 10.238 45.4769 10.3391 45.3063 10.4469C44.9859 10.6492 44.6287 10.8748 44.3871 10.8709C44.2579 10.7628 44.2248 10.673 44.2112 10.5106C44.1213 9.43314 44.5552 8.20752 45.2521 7.39295C45.7626 6.79671 46.5637 6.57628 47.3157 6.5153Z"/>
            <path d="M59.2405 5.4593C58.8266 5.40258 58.4075 5.38677 57.9905 5.41209C56.5713 5.52784 55.3712 6.04551 54.4426 7.15037C53.421 8.37389 52.9305 9.95498 53.0801 11.5421C53.2051 12.8565 53.8191 14.2009 54.8544 15.045C55.9689 15.9539 57.6318 16.2648 59.0346 16.1057C60.2831 15.9644 61.405 15.3777 62.1844 14.3866C62.5431 13.9266 62.8242 13.4107 63.0158 12.8594C62.9916 12.8384 62.9663 12.8154 62.9401 12.7915C62.8102 12.673 62.6574 12.5337 62.4948 12.5208C61.8267 13.527 61.0268 14.235 59.8146 14.4794C58.9012 14.6637 58.0146 14.5292 57.2305 14.0088C56.5577 13.5621 56.0682 12.9115 55.7194 12.1908C57.2594 11.1431 59.1539 10.3406 60.9848 10.0019C61.2119 9.95983 61.4426 9.942 61.6732 9.92418C61.8641 9.90943 62.0549 9.89468 62.2437 9.86622C62.4896 9.82914 62.7391 9.77289 62.7942 9.49189C62.9492 8.69943 62.6366 7.74619 62.1687 7.10904C61.4628 6.14777 60.4055 5.62139 59.2405 5.4593ZM57.8881 6.55388C58.3655 6.51606 58.8303 6.49253 59.2904 6.66086C59.7316 6.82216 60.0872 7.1404 60.2789 7.57166C60.4055 7.85555 60.4606 8.17342 60.3408 8.46922C60.2726 8.63619 60.1476 8.78788 60.0026 8.89397C59.6557 9.14739 58.799 9.44641 58.0538 9.70653C57.6865 9.83474 57.3463 9.95349 57.1075 10.0527C56.7245 10.2234 56.3554 10.4306 55.987 10.6373C55.7826 10.752 55.5784 10.8666 55.3722 10.9748C55.1994 9.91948 55.3076 8.84392 55.8822 7.91884C56.357 7.15521 57.0261 6.75131 57.8881 6.55388Z"/>
            <path d="M22.52 18.1199C23.6496 18.1136 26.8228 17.9728 27.6788 18.1987C27.7505 18.2969 27.7438 18.2985 27.735 18.4208C27.5371 18.7544 27.1148 18.8883 26.8219 19.1273C26.6529 19.2649 26.5002 19.4613 26.4492 19.6767C26.2602 20.474 26.3347 21.3957 26.3341 22.2146L26.3117 25.6727C26.3058 26.4978 26.3315 27.3413 26.2348 28.1607C26.0965 29.334 25.5786 30.4244 24.6306 31.155C23.4489 32.0662 21.7993 32.269 20.355 32.0731C19.09 31.9018 17.8559 31.354 17.0694 30.3157C16.3558 29.3739 16.1751 28.2741 16.3264 27.1228C16.3664 26.9195 16.4174 26.7231 16.4903 26.5288C16.7594 25.8113 17.286 25.2215 17.9962 24.9169C18.7464 24.5954 19.6923 24.5718 20.446 24.8964C20.8128 25.0539 21.0439 25.3255 21.1787 25.701C21.2612 25.9305 21.2883 26.127 21.1829 26.3502C20.879 26.6375 20.1952 26.2525 19.7704 26.3717C19.3783 26.4815 19.0786 26.7562 18.8909 27.1123C18.5651 27.7305 18.5573 28.5383 18.7903 29.1885C18.9979 29.7684 19.4683 30.2364 20.0226 30.4927C20.6805 30.7968 21.6055 30.8729 22.2929 30.6171C22.8253 30.4191 23.2164 29.9958 23.4311 29.4758C23.6162 29.0278 23.7029 28.5126 23.7465 28.032C23.8447 26.949 23.9665 20.4078 23.728 19.7003C23.4763 18.954 22.6182 18.9319 22.4215 18.4776C22.4216 18.3678 22.4241 18.2916 22.477 18.1955C22.4909 18.1698 22.5057 18.1451 22.52 18.1199Z"/>
            <path d="M45.8574 30.238C46.339 29.0457 46.755 27.8172 47.1988 26.6097C47.5449 25.6696 47.9724 24.6969 48.1846 23.7184C48.2298 23.5098 48.2498 23.3034 48.1915 23.0954C48.0134 22.4599 47.1935 22.5109 47.0081 22.0198C47.0339 21.9121 47.0186 21.8654 47.1216 21.7992C47.3112 21.6779 50.6584 21.6652 51.0687 21.7172C51.2052 21.7346 51.3024 21.765 51.3922 21.8748C51.4016 22.1106 51.3444 22.2183 51.1322 22.3386C50.7919 22.5308 50.3585 22.629 50.1033 22.9452C49.7015 23.4431 48.1883 27.7038 47.8149 28.6723L46.5669 31.9098C46.2528 32.7228 45.9587 33.6068 45.4913 34.3463C45.2082 34.7938 44.8269 35.2271 44.3647 35.4934C43.6903 35.881 42.8352 35.9525 42.0899 35.7429C41.5106 35.5796 40.9806 35.2208 40.7033 34.6751C40.4838 34.2434 40.4297 33.6688 40.5909 33.2087C40.7112 32.8657 40.989 32.5816 41.3199 32.434C41.5342 32.3389 41.8845 32.2559 42.1062 32.3762C42.6335 32.663 42.29 33.61 42.4922 34.1152C42.5605 34.2849 42.6603 34.4046 42.8336 34.4745C43.1157 34.5879 43.6052 34.4325 43.8594 34.309C44.7187 33.8899 45.0795 32.539 45.3652 31.705C45.0044 31.7118 44.5873 31.7559 44.2318 31.6939C44.1766 31.6845 44.1073 31.6698 44.0579 31.6409C43.9403 31.5726 43.8646 31.4486 43.8037 31.3299C43.5232 30.7832 43.3331 30.1477 43.1141 29.572L41.7501 25.9826C41.4817 25.2772 41.238 24.5419 40.9087 23.8633C40.6629 23.3575 40.3351 22.8407 39.8298 22.5613C39.5793 22.4232 39.2495 22.4247 39.0798 22.1737C39.0504 22.0024 39.0809 21.8984 39.1339 21.7346C40.0384 21.6978 43.6745 21.6033 44.3431 21.7892C44.3799 21.9168 44.3862 22.0933 44.3358 22.2188C44.2559 22.4174 43.872 22.4783 43.6955 22.5492C43.5049 22.6259 43.3399 22.7414 43.2659 22.9415C43.1845 23.1627 43.2932 23.5182 43.3567 23.7425C43.6335 24.7231 44.08 25.6937 44.4476 26.6481C44.9072 27.8403 45.3216 29.0778 45.8574 30.238Z"/>
            <path d="M39.4562 0.943689C40.2592 0.901828 41.0213 1.00441 41.7225 1.42469C42.2346 1.73143 42.6684 2.19305 42.7976 2.79023C42.868 3.1144 42.846 3.45769 42.6574 3.73926C42.4526 4.045 42.0387 4.28329 41.6752 4.32883C41.4567 4.35614 41.2004 4.32636 41.0255 4.18502C40.6195 3.85697 40.8086 3.27349 40.7314 2.82463C40.6894 2.58303 40.5639 2.37971 40.3548 2.24877C40.0386 2.0504 39.5444 1.98485 39.1857 2.08438C38.8721 2.17125 38.6463 2.393 38.5018 2.67888C38.0422 3.58642 38.2965 4.77259 38.5806 5.69038C39.5439 5.71427 40.5113 5.69484 41.4751 5.69395C41.4778 6.10284 41.4704 6.5049 41.4394 6.91268C40.5087 6.91168 39.5759 6.89756 38.6463 6.93306C38.5869 7.88939 38.61 8.86107 38.6042 9.8196C38.5953 11.2542 38.454 12.8379 38.7828 14.2338C38.8327 14.3631 38.8879 14.4849 38.9551 14.6066C39.245 15.1342 39.4236 15.0777 39.9394 15.2477C40.1153 15.3054 40.2172 15.3769 40.2939 15.5407C40.2871 15.6794 40.2655 15.7319 40.1836 15.8438C40.1379 15.8727 40.1195 15.8895 40.0596 15.9005C39.8727 15.9362 35.382 15.9168 35.1278 15.8748C34.9534 15.8454 34.8305 15.807 34.7207 15.6589C34.7932 15.2351 35.2648 15.265 35.5485 14.9908C35.8736 14.6768 36.0369 14.2557 36.1273 13.8207C36.3237 12.8738 36.2481 11.801 36.2444 10.8341L36.226 6.9203L34.3893 6.91347C34.352 6.50926 34.3494 6.10121 34.3389 5.69558L36.1677 5.69463C36.0779 5.42104 35.9886 5.13684 35.9492 4.85085C35.8326 4.00571 36.0291 3.14681 36.5485 2.46202C37.2392 1.55175 38.35 1.08671 39.4562 0.943689Z"/>
            <path d="M31.8544 0.945043C32.5944 0.882751 33.3051 0.936692 33.969 1.30025C34.4994 1.59081 34.9527 2.07008 35.1155 2.66322C35.2164 3.03077 35.2274 3.49639 35.0194 3.83127C34.8724 4.06841 34.6265 4.20718 34.3566 4.25776C34.1108 4.30387 33.7857 4.30329 33.5803 4.13853C33.1916 3.8266 33.4516 3.22684 33.365 2.8137C33.313 2.5649 33.1123 2.35386 32.8943 2.23453C32.5514 2.04645 32.0571 2.0236 31.6862 2.13515C31.3782 2.22775 31.1456 2.42918 31.0043 2.71768C30.5947 3.5539 30.9054 4.83508 31.1864 5.66725C32.1086 5.72193 33.0514 5.67944 33.9768 5.68422C33.9999 6.09684 33.9789 6.5011 33.9543 6.91325C33.0151 6.91115 32.0755 6.91451 31.1363 6.92323C31.0931 8.09758 31.0757 9.27272 31.0842 10.4479C31.0809 11.6585 30.9604 13.0185 31.3155 14.1862C31.7056 15.041 32.5157 15.1852 32.7068 15.6418C32.6774 15.7253 32.6895 15.7395 32.607 15.7884C32.3108 15.9654 27.8136 15.9307 27.4115 15.8351C27.3961 15.7805 27.3754 15.7175 27.3734 15.6607C27.3613 15.3041 27.9235 15.1544 28.1395 14.9412C28.4403 14.6444 28.589 14.0944 28.6588 13.6848C28.8157 12.7644 28.7659 11.7499 28.765 10.8174L28.757 6.92113L26.9252 6.91335C26.8975 6.50678 26.8978 6.1024 26.8996 5.69504C27.4839 5.70145 28.0682 5.70076 28.6525 5.69304C28.5621 5.39545 28.4667 5.09665 28.4208 4.78834C28.2959 3.94981 28.4782 3.12142 28.9909 2.43979C29.6796 1.524 30.7517 1.09972 31.8544 0.945043Z"/>
        </symbol>
        <symbol id="icon-company-logo" viewBox="0 0 84 36" fill="none">
            <path d="M35.8389 9.89467C35.5345 6.78139 32.7599 4.50705 29.6474 4.81962C26.5465 5.13102 24.2825 7.89314 24.5857 10.9949C24.8889 14.0965 27.6451 16.3677 30.7476 16.073C33.8617 15.7768 36.1433 13.008 35.8389 9.89467ZM31.6245 6.1248C31.6936 6.12461 31.7451 6.13864 31.8093 6.1561L31.8232 6.15988C31.8483 6.28589 31.8232 6.34445 31.7573 6.4517C31.6419 6.63944 31.5135 6.81919 31.3851 6.99897C31.1584 7.3163 30.9318 7.6337 30.7765 7.99524C30.4397 8.7791 30.5182 9.69342 30.5975 10.6173C30.6669 11.4259 30.7369 12.2418 30.5297 12.984C30.2805 13.8769 29.6549 14.4609 28.8715 14.8965C28.828 14.9038 28.7801 14.9001 28.7341 14.8965C28.7244 14.8958 28.7149 14.8951 28.7055 14.8944C28.6995 14.894 28.6936 14.8937 28.6878 14.8934L28.6802 14.8791C28.6355 14.7942 28.6329 14.789 28.6652 14.6924C28.7071 14.5671 28.7906 14.4389 28.8692 14.318C28.8993 14.2719 28.9286 14.2268 28.9547 14.1834C29.227 13.7297 29.494 13.2396 29.5775 12.7101C29.6818 12.0489 29.6262 11.3685 29.5707 10.6881C29.5002 9.82472 29.4297 8.961 29.6859 8.13689C30.0007 7.12431 30.7375 6.59614 31.6245 6.1248Z" fill="#0B0803"/>
            <path d="M49.1508 26.3191C48.7978 23.297 46.0619 21.133 43.0398 21.485C40.0162 21.8369 37.8506 24.5738 38.2037 27.5975C38.5569 30.6213 41.2948 32.7857 44.3182 32.4317C47.3403 32.0777 49.5038 29.3413 49.1508 26.3191ZM43.0482 22.7518C43.7793 22.6977 44.4632 22.8758 45.053 23.3143C46.0074 24.0239 46.4942 25.1967 46.6555 26.3449C46.8262 27.5566 46.8094 29.2394 46.0199 30.2541C45.5892 30.8072 45.0446 31.032 44.3702 31.1145C43.6517 31.1838 42.9327 30.991 42.3454 30.5724C41.4171 29.9028 40.9407 28.8024 40.7678 27.7C40.5708 26.4441 40.5781 24.6867 41.3917 23.6274C41.8246 23.0638 42.3654 22.8395 43.0482 22.7518Z" fill="#0B0803"/>
            <path d="M17.756 0.275559C18.7365 0.146984 19.8464 0.247829 20.8003 0.488436C21.3805 0.634764 21.9594 0.833772 22.5525 0.917231C22.8936 0.965184 23.2514 0.961348 23.5955 0.967388C23.6512 1.9223 23.8354 4.21051 23.7251 5.0516C23.5494 5.08569 23.4144 5.07613 23.2377 5.05208C23.0567 4.84283 22.9716 4.37448 22.8629 4.10315C22.464 3.10811 21.6754 2.34353 20.6866 1.93795C19.4475 1.42969 17.9679 1.49503 16.7466 2.02262C15.4639 2.57674 14.4188 3.68575 13.9094 4.98474C13.1204 6.99678 13.1259 9.57764 14.0112 11.5582C14.6245 12.9304 15.7155 14.1375 17.1432 14.6732C18.5061 15.1846 19.9872 15.0334 21.2927 14.4352C21.8756 14.1378 22.4146 13.6956 22.7614 13.1351C22.9576 12.818 23.1018 12.2153 23.413 12.0105L23.4996 12.0449C23.834 12.4674 23.9585 13.7885 24.0684 14.3569C22.8101 15.4659 21.2921 16.2012 19.6236 16.4207C17.4399 16.7075 15.161 16.2668 13.3965 14.9052C11.7903 13.6657 10.8147 11.7182 10.5735 9.72239C10.2932 7.40315 10.8053 5.06253 12.2732 3.21657C13.6259 1.51562 15.6155 0.521155 17.756 0.275559Z" fill="#0B0803"/>
            <path d="M58.7648 5.78424C58.1803 5.6387 57.4728 5.56013 56.8735 5.63445C55.4748 5.77185 54.2789 6.3111 53.3702 7.40782C52.3634 8.63643 51.8854 10.2143 52.0403 11.7951C52.1795 13.1427 52.7993 14.4826 53.8745 15.335C55.0037 16.2311 56.5993 16.4837 58.0006 16.3178C59.2449 16.1707 60.3478 15.6334 61.1194 14.6289C61.4724 14.1699 61.7287 13.6511 61.9309 13.1107C61.9061 13.0873 61.8815 13.063 61.8566 13.0387C61.7374 12.9214 61.6144 12.8004 61.454 12.7517C61.4398 12.7582 61.4276 12.7633 61.4168 12.7679C61.368 12.7884 61.3484 12.7967 61.308 12.8581C60.6425 13.8378 59.8799 14.4863 58.6887 14.709C57.7601 14.8826 56.8372 14.7229 56.0583 14.1763C55.4386 13.7414 54.9496 13.0994 54.6633 12.4009C56.0878 11.5563 57.6361 10.7014 59.2748 10.3657C59.5992 10.2993 59.9299 10.262 60.2596 10.2248C60.6063 10.1857 60.9518 10.1467 61.2875 10.0741C61.5128 10.0254 61.6746 9.97965 61.7513 9.74088C61.943 9.14175 61.6405 8.16289 61.3384 7.64659C60.7864 6.70181 59.8169 6.04602 58.7648 5.78424ZM57.3157 6.73748C57.582 6.73906 57.8672 6.75791 58.1235 6.82871C58.5574 6.94836 58.9503 7.2054 59.1619 7.61177C59.3085 7.89298 59.423 8.34383 59.3079 8.65151C59.2113 8.90982 59.0023 9.08634 58.7711 9.22291C58.4827 9.39289 58.1372 9.50224 57.8045 9.60754C57.6913 9.64335 57.5797 9.67869 57.4723 9.71578C56.8908 9.91663 56.3178 10.1358 55.7637 10.4038C55.637 10.4601 55.4769 10.5613 55.3063 10.6691C54.9859 10.8714 54.6287 11.097 54.3871 11.0931C54.2579 10.985 54.2248 10.8952 54.2112 10.7328C54.1213 9.65532 54.5552 8.42971 55.2521 7.61513C55.7626 7.0189 56.5637 6.79846 57.3157 6.73748Z" fill="#0B0803"/>
            <path d="M69.2405 5.68141C68.8266 5.62468 68.4075 5.60887 67.9905 5.63419C66.5713 5.74995 65.3712 6.26762 64.4426 7.37248C63.421 8.596 62.9305 10.1771 63.0801 11.7642C63.2051 13.0787 63.8191 14.423 64.8544 15.2671C65.9689 16.176 67.6318 16.4869 69.0346 16.3278C70.2831 16.1865 71.405 15.5998 72.1844 14.6087C72.5431 14.1487 72.8242 13.6328 73.0158 13.0815C72.9916 13.0605 72.9663 13.0375 72.9401 13.0136C72.8102 12.8951 72.6574 12.7559 72.4948 12.7429C71.8267 13.7491 71.0268 14.4571 69.8146 14.7015C68.9012 14.8858 68.0146 14.7513 67.2305 14.2309C66.5577 13.7842 66.0682 13.1336 65.7194 12.4129C67.2594 11.3652 69.1539 10.5627 70.9848 10.224C71.2119 10.1819 71.4426 10.1641 71.6732 10.1463C71.8641 10.1315 72.0549 10.1168 72.2437 10.0883C72.4896 10.0512 72.7391 9.99499 72.7942 9.714C72.9492 8.92153 72.6366 7.9683 72.1687 7.33115C71.4628 6.36988 70.4055 5.84349 69.2405 5.68141ZM67.8881 6.77598C68.3655 6.73817 68.8303 6.71464 69.2904 6.88297C69.7316 7.04427 70.0872 7.3625 70.2789 7.79377C70.4055 8.07766 70.4606 8.39552 70.3408 8.69133C70.2726 8.8583 70.1476 9.00999 70.0026 9.11608C69.6557 9.3695 68.799 9.66852 68.0538 9.92864C67.6865 10.0568 67.3463 10.1756 67.1075 10.2748C66.7245 10.4455 66.3554 10.6527 65.987 10.8594C65.7826 10.9741 65.5784 11.0887 65.3722 11.1969C65.1994 10.1416 65.3076 9.06603 65.8822 8.14095C66.357 7.37731 67.0261 6.97342 67.8881 6.77598Z" fill="#0B0803"/>
            <path d="M32.5199 18.342C33.6495 18.3357 36.8227 18.1949 37.6787 18.4208C37.7504 18.519 37.7437 18.5206 37.7349 18.643C37.537 18.9765 37.1147 19.1104 36.8218 19.3494C36.6528 19.487 36.5001 19.6834 36.4491 19.8988C36.2601 20.6961 36.3346 21.6178 36.334 22.4367L36.3116 25.8948C36.3056 26.7199 36.3314 27.5634 36.2347 28.3828C36.0964 29.5561 35.5785 30.6465 34.6305 31.3771C33.4488 32.2884 31.7992 32.4911 30.3549 32.2952C29.0899 32.124 27.8558 31.5761 27.0693 30.5378C26.3557 29.596 26.1749 28.4962 26.3263 27.3449C26.3663 27.1417 26.4172 26.9452 26.4901 26.7509C26.7593 26.0334 27.2859 25.4436 27.9961 25.139C28.7463 24.8175 29.6921 24.7939 30.4459 25.1185C30.8127 25.276 31.0438 25.5476 31.1786 25.9231C31.2611 26.1526 31.2881 26.3491 31.1828 26.5723C30.8788 26.8596 30.195 26.4746 29.7703 26.5938C29.3782 26.7036 29.0785 26.9783 28.8908 27.3344C28.5649 27.9526 28.5572 28.7604 28.7902 29.4106C28.9977 29.9905 29.4682 30.4585 30.0224 30.7148C30.6803 31.0189 31.6054 31.095 32.2927 30.8393C32.8252 30.6412 33.2163 30.2179 33.431 29.6979C33.6161 29.2499 33.7028 28.7347 33.7464 28.2541C33.8446 27.1711 33.9664 20.6299 33.7279 19.9224C33.4761 19.1761 32.6181 19.154 32.4214 18.6997C32.4215 18.5899 32.4239 18.5138 32.4769 18.4176C32.4908 18.3919 32.5056 18.3672 32.5199 18.342Z" fill="#0B0803"/>
            <path d="M55.8574 30.46C56.339 29.2678 56.755 28.0393 57.1988 26.8318C57.5449 25.8916 57.9724 24.9189 58.1846 23.9404C58.2298 23.7319 58.2498 23.5255 58.1915 23.3175C58.0134 22.682 57.1935 22.7329 57.0081 22.2418C57.0339 22.1341 57.0186 22.0874 57.1216 22.0212C57.3112 21.8999 60.6584 21.8873 61.0687 21.9393C61.2052 21.9566 61.3024 21.9871 61.3922 22.0969C61.4016 22.3327 61.3444 22.4404 61.1322 22.5606C60.7919 22.7529 60.3585 22.8511 60.1033 23.1673C59.7015 23.6652 58.1883 27.9258 57.8149 28.8943L56.5669 32.1318C56.2528 32.9449 55.9587 33.8289 55.4913 34.5684C55.2082 35.0159 54.8269 35.4492 54.3647 35.7155C53.6903 36.1031 52.8352 36.1745 52.0899 35.9649C51.5106 35.8016 50.9806 35.4429 50.7033 34.8972C50.4838 34.4654 50.4297 33.8908 50.5909 33.4307C50.7112 33.0878 50.989 32.8036 51.3199 32.656C51.5342 32.561 51.8845 32.478 52.1062 32.5982C52.6335 32.885 52.29 33.832 52.4922 34.3373C52.5605 34.5069 52.6603 34.6267 52.8336 34.6965C53.1157 34.81 53.6052 34.6545 53.8594 34.5311C54.7187 34.1119 55.0795 32.7611 55.3652 31.927C55.0044 31.9338 54.5873 31.978 54.2318 31.916C54.1766 31.9065 54.1073 31.8918 54.0579 31.8629C53.9403 31.7946 53.8646 31.6707 53.8037 31.552C53.5232 31.0052 53.3331 30.3697 53.1141 29.7941L51.7501 26.2047C51.4817 25.4993 51.238 24.764 50.9087 24.0854C50.6629 23.5796 50.3351 23.0628 49.8298 22.7833C49.5793 22.6452 49.2495 22.6468 49.0798 22.3957C49.0504 22.2245 49.0809 22.1205 49.1339 21.9566C50.0384 21.9199 53.6745 21.8253 54.3431 22.0112C54.3799 22.1389 54.3862 22.3154 54.3358 22.4409C54.2559 22.6394 53.872 22.7003 53.6955 22.7712C53.5049 22.8479 53.3399 22.9635 53.2659 23.1636C53.1845 23.3847 53.2932 23.7403 53.3567 23.9646C53.6335 24.9452 54.08 25.9158 54.4476 26.8701C54.9072 28.0624 55.3216 29.2998 55.8574 30.46Z" fill="#0B0803"/>
            <path d="M49.456 1.16609C50.2591 1.12423 51.0212 1.2268 51.7224 1.64709C52.2345 1.95382 52.6683 2.41544 52.7975 3.01263C52.8679 3.3368 52.8458 3.68009 52.6573 3.96166C52.4525 4.26739 52.0386 4.50569 51.6751 4.55123C51.4566 4.57854 51.2003 4.54876 51.0254 4.40742C50.6194 4.07936 50.8085 3.49589 50.7313 3.04703C50.6893 2.80542 50.5637 2.60211 50.3547 2.47117C50.0385 2.27279 49.5443 2.20724 49.1855 2.30677C48.872 2.39365 48.6461 2.6154 48.5017 2.90128C48.0421 3.80882 48.2963 4.99499 48.5805 5.91277C49.5437 5.93667 50.5112 5.91724 51.475 5.91634C51.4776 6.32523 51.4703 6.72729 51.4393 7.13508C50.5086 7.13408 49.5758 7.11995 48.6461 7.15546C48.5868 8.11179 48.6099 9.08346 48.6041 10.042C48.5952 11.4766 48.4539 13.0603 48.7827 14.4562C48.8326 14.5855 48.8877 14.7073 48.955 14.829C49.2449 15.3566 49.4235 15.3001 49.9392 15.4701C50.1152 15.5278 50.2171 15.5993 50.2938 15.7631C50.2869 15.9018 50.2654 15.9543 50.1835 16.0662C50.1378 16.0951 50.1194 16.1119 50.0595 16.1229C49.8725 16.1586 45.3818 16.1392 45.1276 16.0972C44.9533 16.0678 44.8304 16.0294 44.7206 15.8813C44.7931 15.4575 45.2647 15.4874 45.5483 15.2132C45.8735 14.8992 46.0368 14.4781 46.1271 14.0431C46.3236 13.0962 46.2479 12.0234 46.2443 11.0565L46.2259 7.1427L44.3892 7.13587C44.3519 6.73165 44.3492 6.32361 44.3387 5.91797L46.1676 5.91703C46.0778 5.64344 45.9885 5.35924 45.9491 5.07325C45.8325 4.22811 46.0289 3.3692 46.5484 2.68441C47.2391 1.77414 48.3499 1.30911 49.456 1.16609Z" fill="#0B0803"/>
            <path d="M41.8546 1.16718C42.5946 1.10489 43.3052 1.15883 43.9691 1.52239C44.4996 1.81295 44.9528 2.29222 45.1157 2.88536C45.2165 3.25291 45.2275 3.71852 45.0195 4.05341C44.8725 4.29055 44.6267 4.42931 44.3567 4.47989C44.1109 4.52601 43.7858 4.52543 43.5804 4.36066C43.1917 4.04873 43.4517 3.44898 43.3651 3.03583C43.3131 2.78703 43.1124 2.576 42.8945 2.45667C42.5515 2.26858 42.0573 2.24573 41.6863 2.35729C41.3783 2.44989 41.1457 2.65131 41.0044 2.93982C40.5948 3.77603 40.9055 5.05722 41.1865 5.88939C42.1087 5.94407 43.0515 5.90158 43.977 5.90636C44.0001 6.31897 43.9791 6.72324 43.9544 7.13539C43.0153 7.13328 42.0756 7.13665 41.1364 7.14536C41.0932 8.31972 41.0759 9.49486 41.0843 10.67C41.0811 11.8806 40.9605 13.2406 41.3156 14.4083C41.7057 15.2632 42.5158 15.4073 42.707 15.864C42.6776 15.9475 42.6896 15.9617 42.6072 16.0105C42.3109 16.1875 37.8137 16.1528 37.4116 16.0573C37.3962 16.0026 37.3755 15.9396 37.3735 15.8829C37.3614 15.5263 37.9236 15.3765 38.1396 15.1633C38.4404 14.8665 38.5891 14.3165 38.6589 13.9069C38.8158 12.9865 38.766 11.972 38.7651 11.0395L38.7572 7.14326L36.9254 7.13549C36.8976 6.72891 36.898 6.32454 36.8997 5.91718C37.484 5.92358 38.0684 5.9229 38.6526 5.91518C38.5622 5.61758 38.4669 5.31878 38.421 5.01048C38.2961 4.17195 38.4783 3.34356 38.991 2.66192C39.6798 1.74614 40.7519 1.32186 41.8546 1.16718Z" fill="#0B0803"/>
        </symbol>
        <symbol id="icon-close" viewBox="0 0 12 12">
            <path  
            d="M10.192 0.344238L5.94897 4.58624L1.70697 0.344238L0.292969 1.75824L4.53497 6.00024L0.292969 10.2422L1.70697 11.6562L5.94897 7.41424L10.192 11.6562L11.606 10.2422L7.36397 6.00024L11.606 1.75824L10.192 0.344238Z" fill="#0B0803"/>
        </symbol>
    </defs>
</svg>